<?xml version="1.0" encoding="UTF-8"?>
<svg xmlns="http://www.w3.org/2000/svg" xmlns:xlink="http://www.w3.org/1999/xlink" width="18px" height="18px" viewBox="0 0 18 18" version="1.1">
<g id="surface1">
<path style=" stroke:none;fill-rule:nonzero;fill:rgb(0%,0%,0%);fill-opacity:1;" d="M 17.71875 9 C 17.71875 4.183594 13.816406 0.28125 9 0.28125 C 4.183594 0.28125 0.28125 4.183594 0.28125 9 C 0.28125 13.351562 3.46875 16.957031 7.636719 17.613281 L 7.636719 11.519531 L 5.421875 11.519531 L 5.421875 9 L 7.636719 9 L 7.636719 7.078125 C 7.636719 4.894531 8.9375 3.6875 10.929688 3.6875 C 11.886719 3.6875 12.882812 3.855469 12.882812 3.855469 L 12.882812 6 L 11.78125 6 C 10.699219 6 10.363281 6.675781 10.363281 7.363281 L 10.363281 9 L 12.78125 9 L 12.394531 11.519531 L 10.363281 11.519531 L 10.363281 17.613281 C 14.53125 16.957031 17.71875 13.351562 17.71875 9 Z M 17.71875 9 "/>
</g>
</svg>
