<svg version="1.2" baseProfile="tiny-ps" xmlns="http://www.w3.org/2000/svg" viewBox="0 0 20 20" width="20" height="20">
	<title>Header</title>
	<style>
		tspan { white-space:pre }
		.shp0 { fill: #29282d } 
	</style>
	<g id="Header">
		<g id="Menu_bar">
			<g id="menu_icon">
				<g id="user">
					<path id="user" class="shp0" d="M20 20L18.44 20C18.44 15.35 14.65 11.56 10 11.56C5.35 11.56 1.56 15.35 1.56 20L0 20C0 17.33 1.04 14.82 2.93 12.93C4.02 11.84 5.31 11.03 6.73 10.54C5.21 9.5 4.22 7.75 4.22 5.78C4.22 2.59 6.81 0 10 0C13.19 0 15.78 2.59 15.78 5.78C15.78 7.75 14.79 9.5 13.27 10.54C14.69 11.03 15.98 11.84 17.07 12.93C18.96 14.82 20 17.33 20 20ZM5.78 5.78C5.78 3.45 7.67 1.56 10 1.56C12.33 1.56 14.22 3.45 14.22 5.78C14.22 8.11 12.33 10 10 10C7.67 10 5.78 8.11 5.78 5.78Z" />
				</g>
			</g>
		</g>
	</g>
</svg>