<?xml version="1.0" encoding="UTF-8"?>
<svg xmlns="http://www.w3.org/2000/svg" xmlns:xlink="http://www.w3.org/1999/xlink" width="16px" height="16px" viewBox="0 0 16 18" version="1.1">
<g id="surface1">
<path style=" stroke:none;fill-rule:nonzero;fill:rgb(0%,0%,0%);fill-opacity:1;" d="M 13.605469 3.414062 C 12.105469 1.9375 10.113281 1.125 7.996094 1.125 C 3.625 1.125 0.0664062 4.625 0.0664062 8.929688 C 0.0664062 10.304688 0.433594 11.648438 1.125 12.832031 L 0 16.875 L 4.203125 15.789062 C 5.359375 16.410156 6.664062 16.738281 7.992188 16.738281 L 7.996094 16.738281 C 12.363281 16.738281 16 13.234375 16 8.933594 C 16 6.847656 15.101562 4.890625 13.605469 3.414062 Z M 7.996094 15.421875 C 6.8125 15.421875 5.648438 15.109375 4.640625 14.519531 L 4.398438 14.378906 L 1.90625 15.023438 L 2.570312 12.628906 L 2.414062 12.382812 C 1.753906 11.347656 1.40625 10.15625 1.40625 8.929688 C 1.40625 5.355469 4.363281 2.445312 8 2.445312 C 9.761719 2.445312 11.414062 3.117188 12.65625 4.34375 C 13.898438 5.570312 14.664062 7.199219 14.660156 8.933594 C 14.660156 12.511719 11.628906 15.421875 7.996094 15.421875 Z M 11.609375 10.566406 C 11.414062 10.464844 10.4375 9.996094 10.257812 9.933594 C 10.074219 9.863281 9.941406 9.832031 9.8125 10.03125 C 9.679688 10.226562 9.300781 10.664062 9.183594 10.796875 C 9.066406 10.925781 8.949219 10.945312 8.753906 10.847656 C 7.589844 10.273438 6.824219 9.824219 6.058594 8.527344 C 5.855469 8.179688 6.261719 8.207031 6.640625 7.460938 C 6.703125 7.332031 6.671875 7.21875 6.621094 7.121094 C 6.570312 7.019531 6.175781 6.0625 6.011719 5.671875 C 5.851562 5.292969 5.6875 5.34375 5.5625 5.335938 C 5.449219 5.328125 5.316406 5.328125 5.1875 5.328125 C 5.054688 5.328125 4.839844 5.378906 4.65625 5.574219 C 4.476562 5.769531 3.964844 6.242188 3.964844 7.199219 C 3.964844 8.160156 4.675781 9.089844 4.769531 9.21875 C 4.871094 9.347656 6.167969 11.316406 8.15625 12.164062 C 9.414062 12.699219 9.90625 12.746094 10.535156 12.652344 C 10.917969 12.597656 11.707031 12.183594 11.871094 11.726562 C 12.035156 11.269531 12.035156 10.878906 11.984375 10.796875 C 11.9375 10.707031 11.808594 10.660156 11.609375 10.566406 Z M 11.609375 10.566406 "/>
</g>
</svg>
