<svg version="1.2" baseProfile="tiny-ps" xmlns="http://www.w3.org/2000/svg" viewBox="0 0 60 60" width="60" height="60">
	<title>Features</title>
	<style>
		tspan { white-space:pre }
		.shp0 { fill: #ffb534 } 
		.shp1 { fill: #ffffff } 
	</style>
	<g id="Features">
		<g id="Free SHipping">
			<g id="Icon">
				<path id="Icon_bg" class="shp0" d="M0 0L60 0L60 60L0 60L0 0Z" />
				<path id="icon" class="shp1" d="M50 31.82L50 38.42C50 38.76 49.72 39.04 49.37 39.04L47.33 39.04C47.33 39.05 47.33 39.07 47.33 39.08C47.33 41.24 45.55 43 43.36 43C41.17 43 39.39 41.24 39.39 39.08C39.39 39.07 39.39 39.05 39.39 39.04L25.28 39.04C25.28 39.05 25.28 39.07 25.28 39.08C25.28 41.24 23.5 43 21.31 43C19.13 43 17.35 41.24 17.35 39.08C17.35 39.07 17.35 39.05 17.35 39.04L13.96 39.04C13.25 39.04 12.67 38.47 12.67 37.76L12.67 36.4L10.62 36.4C10.28 36.4 10 36.12 10 35.78C10 35.44 10.28 35.16 10.62 35.16L16.64 35.16C16.98 35.16 17.26 35.44 17.26 35.78C17.26 36.12 16.98 36.4 16.64 36.4L13.92 36.4L13.92 37.76C13.92 37.78 13.94 37.8 13.96 37.8L17.56 37.8C18.1 36.27 19.58 35.16 21.31 35.16C23.05 35.16 24.52 36.27 25.06 37.8L38.06 37.8L38.06 33.14C38.06 32.8 38.34 32.52 38.68 32.52C39.03 32.52 39.31 32.8 39.31 33.14L39.31 37.8L39.61 37.8C40.15 36.27 41.63 35.16 43.36 35.16C45.09 35.16 46.57 36.27 47.11 37.8L48.75 37.8L48.75 35.08L48.04 35.08C46.95 35.08 46.07 34.21 46.07 33.14L46.07 31.82C46.07 31.48 46.35 31.2 46.7 31.2L48.65 31.2C48.38 30.39 47.61 29.8 46.7 29.8C46.7 29.8 46.7 29.8 46.7 29.8C46.7 29.8 46.7 29.8 46.7 29.8L39.31 29.8L39.31 30.5C39.31 30.84 39.03 31.12 38.68 31.12C38.34 31.12 38.06 30.84 38.06 30.5L38.06 19.28C38.06 19.25 38.04 19.24 38.02 19.24L13.96 19.24C13.94 19.24 13.92 19.25 13.92 19.28L13.92 30.5C13.92 30.84 13.64 31.12 13.3 31.12C12.95 31.12 12.67 30.84 12.67 30.5L12.67 19.28C12.67 18.57 13.25 18 13.96 18L38.02 18C38.73 18 39.31 18.57 39.31 19.28L39.31 20.64L44.03 20.64C45.48 20.64 46.66 21.81 46.66 23.24L46.66 23.9C46.66 24.2 46.45 24.44 46.16 24.5L47.2 28.6C48.78 28.84 50 30.19 50 31.82ZM39.31 24.52L44.88 24.52L45.9 28.56L39.31 28.56L39.31 24.52ZM44.03 21.88C44.79 21.88 45.41 22.49 45.41 23.24L45.41 23.28L39.31 23.28L39.31 21.88L44.03 21.88ZM21.31 41.76C19.82 41.76 18.6 40.56 18.6 39.08C18.6 37.6 19.82 36.4 21.31 36.4C22.81 36.4 24.03 37.6 24.03 39.08C24.03 40.56 22.81 41.76 21.31 41.76ZM43.36 41.76C41.86 41.76 40.65 40.56 40.65 39.08C40.65 37.6 41.86 36.4 43.36 36.4C44.86 36.4 46.07 37.6 46.07 39.08C46.07 40.56 44.86 41.76 43.36 41.76ZM48.04 33.84C47.65 33.84 47.33 33.53 47.33 33.14L47.33 32.44L48.75 32.44L48.75 33.84L48.04 33.84ZM22.61 39.08C22.61 39.79 22.03 40.36 21.31 40.36C20.6 40.36 20.02 39.79 20.02 39.08C20.02 38.38 20.6 37.8 21.31 37.8C22.03 37.8 22.61 38.38 22.61 39.08ZM44.65 39.08C44.65 39.79 44.07 40.36 43.36 40.36C42.65 40.36 42.07 39.79 42.07 39.08C42.07 38.38 42.65 37.8 43.36 37.8C44.07 37.8 44.65 38.38 44.65 39.08ZM26.66 35.16L36.01 35.16C36.36 35.16 36.64 35.44 36.64 35.78C36.64 36.12 36.36 36.4 36.01 36.4L26.66 36.4C26.31 36.4 26.03 36.12 26.03 35.78C26.03 35.44 26.31 35.16 26.66 35.16ZM11.33 33.14C11.33 32.8 11.61 32.52 11.96 32.52L19.98 32.52C20.32 32.52 20.6 32.8 20.6 33.14C20.6 33.48 20.32 33.76 19.98 33.76L11.96 33.76C11.61 33.76 11.33 33.48 11.33 33.14ZM31.78 24.12C32.02 24.36 32.02 24.75 31.78 25L25.76 30.94C25.64 31.06 25.48 31.12 25.32 31.12C25.16 31.12 25 31.06 24.88 30.94L21.54 27.64C21.29 27.39 21.29 27 21.54 26.76C21.78 26.52 22.18 26.52 22.42 26.76L25.32 29.62L30.89 24.12C31.14 23.88 31.53 23.88 31.78 24.12Z" />
			</g>
		</g>
	</g>
</svg>