<?xml version="1.0" encoding="UTF-8"?>
<svg xmlns="http://www.w3.org/2000/svg" xmlns:xlink="http://www.w3.org/1999/xlink" width="16px" height="16px" viewBox="0 0 16 18" version="1.1">
<g id="surface1">
<path style=" stroke:none;fill-rule:nonzero;fill:rgb(0%,0%,0%);fill-opacity:1;" d="M 1.125 2.230469 C 0 3.339844 0 5.121094 0 8.683594 L 0 9.316406 C 0 12.878906 0 14.660156 1.125 15.769531 C 2.25 16.875 4.058594 16.875 7.679688 16.875 L 8.320312 16.875 C 11.941406 16.875 13.75 16.875 14.875 15.769531 C 16 14.660156 16 12.878906 16 9.316406 L 16 8.683594 C 16 5.121094 16 3.339844 14.875 2.230469 C 13.75 1.125 11.941406 1.125 8.320312 1.125 L 7.679688 1.125 C 4.058594 1.125 2.25 1.125 1.125 2.230469 Z M 2.699219 5.914062 L 4.527344 5.914062 C 4.585938 8.921875 5.933594 10.195312 7 10.457031 L 7 5.914062 L 8.71875 5.914062 L 8.71875 8.507812 C 9.773438 8.394531 10.878906 7.214844 11.253906 5.914062 L 12.972656 5.914062 C 12.832031 6.589844 12.550781 7.226562 12.148438 7.789062 C 11.746094 8.351562 11.230469 8.828125 10.632812 9.183594 C 11.300781 9.507812 11.890625 9.972656 12.363281 10.539062 C 12.835938 11.105469 13.179688 11.765625 13.375 12.472656 L 11.480469 12.472656 C 11.304688 11.855469 10.949219 11.304688 10.460938 10.890625 C 9.96875 10.472656 9.363281 10.207031 8.71875 10.128906 L 8.71875 12.472656 L 8.511719 12.472656 C 4.867188 12.472656 2.785156 10.011719 2.699219 5.914062 Z M 2.699219 5.914062 "/>
</g>
</svg>
